<?xml version='1.0' encoding='UTF-8'?>
<svg width="93.6mm" height="93.6mm" version="1.1" viewBox="0 0 93.6 93.6" xmlns="http://www.w3.org/2000/svg"><path d="M7.2,7.2H9.6V9.6H7.2zM9.6,7.2H12V9.6H9.6zM12,7.2H14.4V9.6H12zM14.4,7.2H16.8V9.6H14.4zM16.8,7.2H19.2V9.6H16.8zM19.2,7.2H21.6V9.6H19.2zM21.6,7.2H24V9.6H21.6zM33.6,7.2H36V9.6H33.6zM38.4,7.2H40.8V9.6H38.4zM45.6,7.2H48V9.6H45.6zM52.8,7.2H55.2V9.6H52.8zM55.2,7.2H57.6V9.6H55.2zM60,7.2H62.4V9.6H60zM64.8,7.2H67.2V9.6H64.8zM69.6,7.2H72V9.6H69.6zM72,7.2H74.4V9.6H72zM74.4,7.2H76.8V9.6H74.4zM76.8,7.2H79.2V9.6H76.8zM79.2,7.2H81.6V9.6H79.2zM81.6,7.2H84V9.6H81.6zM84,7.2H86.4V9.6H84zM7.2,9.6H9.6V12H7.2zM21.6,9.6H24V12H21.6zM26.4,9.6H28.8V12H26.4zM33.6,9.6H36V12H33.6zM36,9.6H38.4V12H36zM38.4,9.6H40.8V12H38.4zM40.8,9.6H43.2V12H40.8zM43.2,9.6H45.6V12H43.2zM45.6,9.6H48V12H45.6zM50.4,9.6H52.8V12H50.4zM52.8,9.6H55.2V12H52.8zM60,9.6H62.4V12H60zM69.6,9.6H72V12H69.6zM84,9.6H86.4V12H84zM7.2,12H9.6V14.4H7.2zM12,12H14.4V14.4H12zM14.4,12H16.8V14.4H14.4zM16.8,12H19.2V14.4H16.8zM21.6,12H24V14.4H21.6zM26.4,12H28.8V14.4H26.4zM36,12H38.4V14.4H36zM38.4,12H40.8V14.4H38.4zM43.2,12H45.6V14.4H43.2zM50.4,12H52.8V14.4H50.4zM52.8,12H55.2V14.4H52.8zM55.2,12H57.6V14.4H55.2zM57.6,12H60V14.4H57.6zM60,12H62.4V14.4H60zM64.8,12H67.2V14.4H64.8zM69.6,12H72V14.4H69.6zM74.4,12H76.8V14.4H74.4zM76.8,12H79.2V14.4H76.8zM79.2,12H81.6V14.4H79.2zM84,12H86.4V14.4H84zM7.2,14.4H9.6V16.8H7.2zM12,14.4H14.4V16.8H12zM14.4,14.4H16.8V16.8H14.4zM16.8,14.4H19.2V16.8H16.8zM21.6,14.4H24V16.8H21.6zM26.4,14.4H28.8V16.8H26.4zM28.8,14.4H31.2V16.8H28.8zM38.4,14.4H40.8V16.8H38.4zM43.2,14.4H45.6V16.8H43.2zM45.6,14.4H48V16.8H45.6zM48,14.4H50.4V16.8H48zM50.4,14.4H52.8V16.8H50.4zM55.2,14.4H57.6V16.8H55.2zM57.6,14.4H60V16.8H57.6zM60,14.4H62.4V16.8H60zM62.4,14.4H64.8V16.8H62.4zM69.6,14.4H72V16.8H69.6zM74.4,14.4H76.8V16.8H74.4zM76.8,14.4H79.2V16.8H76.8zM79.2,14.4H81.6V16.8H79.2zM84,14.4H86.4V16.8H84zM7.2,16.8H9.6V19.2H7.2zM12,16.8H14.4V19.2H12zM14.4,16.8H16.8V19.2H14.4zM16.8,16.8H19.2V19.2H16.8zM21.6,16.8H24V19.2H21.6zM26.4,16.8H28.8V19.2H26.4zM31.2,16.8H33.6V19.2H31.2zM38.4,16.8H40.8V19.2H38.4zM40.8,16.8H43.2V19.2H40.8zM48,16.8H50.4V19.2H48zM50.4,16.8H52.8V19.2H50.4zM52.8,16.8H55.2V19.2H52.8zM55.2,16.8H57.6V19.2H55.2zM60,16.8H62.4V19.2H60zM62.4,16.8H64.8V19.2H62.4zM69.6,16.8H72V19.2H69.6zM74.4,16.8H76.8V19.2H74.4zM76.8,16.8H79.2V19.2H76.8zM79.2,16.8H81.6V19.2H79.2zM84,16.8H86.4V19.2H84zM7.2,19.2H9.6V21.6H7.2zM21.6,19.2H24V21.6H21.6zM26.4,19.2H28.8V21.6H26.4zM28.8,19.2H31.2V21.6H28.8zM33.6,19.2H36V21.6H33.6zM36,19.2H38.4V21.6H36zM38.4,19.2H40.8V21.6H38.4zM40.8,19.2H43.2V21.6H40.8zM43.2,19.2H45.6V21.6H43.2zM45.6,19.2H48V21.6H45.6zM52.8,19.2H55.2V21.6H52.8zM55.2,19.2H57.6V21.6H55.2zM57.6,19.2H60V21.6H57.6zM60,19.2H62.4V21.6H60zM62.4,19.2H64.8V21.6H62.4zM69.6,19.2H72V21.6H69.6zM84,19.2H86.4V21.6H84zM7.2,21.6H9.6V24H7.2zM9.6,21.6H12V24H9.6zM12,21.6H14.4V24H12zM14.4,21.6H16.8V24H14.4zM16.8,21.6H19.2V24H16.8zM19.2,21.6H21.6V24H19.2zM21.6,21.6H24V24H21.6zM26.4,21.6H28.8V24H26.4zM31.2,21.6H33.6V24H31.2zM36,21.6H38.4V24H36zM40.8,21.6H43.2V24H40.8zM45.6,21.6H48V24H45.6zM50.4,21.6H52.8V24H50.4zM55.2,21.6H57.6V24H55.2zM60,21.6H62.4V24H60zM64.8,21.6H67.2V24H64.8zM69.6,21.6H72V24H69.6zM72,21.6H74.4V24H72zM74.4,21.6H76.8V24H74.4zM76.8,21.6H79.2V24H76.8zM79.2,21.6H81.6V24H79.2zM81.6,21.6H84V24H81.6zM84,21.6H86.4V24H84zM28.8,24H31.2V26.4H28.8zM31.2,24H33.6V26.4H31.2zM33.6,24H36V26.4H33.6zM36,24H38.4V26.4H36zM43.2,24H45.6V26.4H43.2zM45.6,24H48V26.4H45.6zM52.8,24H55.2V26.4H52.8zM55.2,24H57.6V26.4H55.2zM62.4,24H64.8V26.4H62.4zM64.8,24H67.2V26.4H64.8zM12,26.4H14.4V28.8H12zM19.2,26.4H21.6V28.8H19.2zM21.6,26.4H24V28.8H21.6zM24,26.4H26.4V28.8H24zM26.4,26.4H28.8V28.8H26.4zM28.8,26.4H31.2V28.8H28.8zM36,26.4H38.4V28.8H36zM40.8,26.4H43.2V28.8H40.8zM45.6,26.4H48V28.8H45.6zM48,26.4H50.4V28.8H48zM52.8,26.4H55.2V28.8H52.8zM55.2,26.4H57.6V28.8H55.2zM64.8,26.4H67.2V28.8H64.8zM67.2,26.4H69.6V28.8H67.2zM72,26.4H74.4V28.8H72zM74.4,26.4H76.8V28.8H74.4zM76.8,26.4H79.2V28.8H76.8zM79.2,26.4H81.6V28.8H79.2zM81.6,26.4H84V28.8H81.6zM9.6,28.8H12V31.2H9.6zM12,28.8H14.4V31.2H12zM14.4,28.8H16.8V31.2H14.4zM16.8,28.8H19.2V31.2H16.8zM19.2,28.8H21.6V31.2H19.2zM28.8,28.8H31.2V31.2H28.8zM31.2,28.8H33.6V31.2H31.2zM33.6,28.8H36V31.2H33.6zM36,28.8H38.4V31.2H36zM40.8,28.8H43.2V31.2H40.8zM43.2,28.8H45.6V31.2H43.2zM48,28.8H50.4V31.2H48zM55.2,28.8H57.6V31.2H55.2zM62.4,28.8H64.8V31.2H62.4zM67.2,28.8H69.6V31.2H67.2zM69.6,28.8H72V31.2H69.6zM72,28.8H74.4V31.2H72zM76.8,28.8H79.2V31.2H76.8zM81.6,28.8H84V31.2H81.6zM84,28.8H86.4V31.2H84zM9.6,31.2H12V33.6H9.6zM14.4,31.2H16.8V33.6H14.4zM16.8,31.2H19.2V33.6H16.8zM19.2,31.2H21.6V33.6H19.2zM21.6,31.2H24V33.6H21.6zM24,31.2H26.4V33.6H24zM26.4,31.2H28.8V33.6H26.4zM33.6,31.2H36V33.6H33.6zM43.2,31.2H45.6V33.6H43.2zM55.2,31.2H57.6V33.6H55.2zM57.6,31.2H60V33.6H57.6zM60,31.2H62.4V33.6H60zM62.4,31.2H64.8V33.6H62.4zM64.8,31.2H67.2V33.6H64.8zM72,31.2H74.4V33.6H72zM74.4,31.2H76.8V33.6H74.4zM76.8,31.2H79.2V33.6H76.8zM84,31.2H86.4V33.6H84zM7.2,33.6H9.6V36H7.2zM9.6,33.6H12V36H9.6zM12,33.6H14.4V36H12zM14.4,33.6H16.8V36H14.4zM28.8,33.6H31.2V36H28.8zM31.2,33.6H33.6V36H31.2zM36,33.6H38.4V36H36zM52.8,33.6H55.2V36H52.8zM60,33.6H62.4V36H60zM64.8,33.6H67.2V36H64.8zM67.2,33.6H69.6V36H67.2zM72,33.6H74.4V36H72zM76.8,33.6H79.2V36H76.8zM81.6,33.6H84V36H81.6zM84,33.6H86.4V36H84zM7.2,36H9.6V38.4H7.2zM9.6,36H12V38.4H9.6zM16.8,36H19.2V38.4H16.8zM19.2,36H21.6V38.4H19.2zM21.6,36H24V38.4H21.6zM26.4,36H28.8V38.4H26.4zM28.8,36H31.2V38.4H28.8zM36,36H38.4V38.4H36zM40.8,36H43.2V38.4H40.8zM43.2,36H45.6V38.4H43.2zM55.2,36H57.6V38.4H55.2zM57.6,36H60V38.4H57.6zM60,36H62.4V38.4H60zM64.8,36H67.2V38.4H64.8zM69.6,36H72V38.4H69.6zM74.4,36H76.8V38.4H74.4zM76.8,36H79.2V38.4H76.8zM84,36H86.4V38.4H84zM7.2,38.4H9.6V40.8H7.2zM9.6,38.4H12V40.8H9.6zM14.4,38.4H16.8V40.8H14.4zM16.8,38.4H19.2V40.8H16.8zM24,38.4H26.4V40.8H24zM26.4,38.4H28.8V40.8H26.4zM28.8,38.4H31.2V40.8H28.8zM33.6,38.4H36V40.8H33.6zM40.8,38.4H43.2V40.8H40.8zM43.2,38.4H45.6V40.8H43.2zM50.4,38.4H52.8V40.8H50.4zM55.2,38.4H57.6V40.8H55.2zM57.6,38.4H60V40.8H57.6zM60,38.4H62.4V40.8H60zM62.4,38.4H64.8V40.8H62.4zM64.8,38.4H67.2V40.8H64.8zM67.2,38.4H69.6V40.8H67.2zM69.6,38.4H72V40.8H69.6zM84,38.4H86.4V40.8H84zM12,40.8H14.4V43.2H12zM14.4,40.8H16.8V43.2H14.4zM16.8,40.8H19.2V43.2H16.8zM19.2,40.8H21.6V43.2H19.2zM21.6,40.8H24V43.2H21.6zM24,40.8H26.4V43.2H24zM26.4,40.8H28.8V43.2H26.4zM31.2,40.8H33.6V43.2H31.2zM38.4,40.8H40.8V43.2H38.4zM45.6,40.8H48V43.2H45.6zM48,40.8H50.4V43.2H48zM50.4,40.8H52.8V43.2H50.4zM52.8,40.8H55.2V43.2H52.8zM62.4,40.8H64.8V43.2H62.4zM67.2,40.8H69.6V43.2H67.2zM69.6,40.8H72V43.2H69.6zM74.4,40.8H76.8V43.2H74.4zM76.8,40.8H79.2V43.2H76.8zM79.2,40.8H81.6V43.2H79.2zM84,40.8H86.4V43.2H84zM7.2,43.2H9.6V45.6H7.2zM12,43.2H14.4V45.6H12zM26.4,43.2H28.8V45.6H26.4zM28.8,43.2H31.2V45.6H28.8zM31.2,43.2H33.6V45.6H31.2zM36,43.2H38.4V45.6H36zM40.8,43.2H43.2V45.6H40.8zM43.2,43.2H45.6V45.6H43.2zM48,43.2H50.4V45.6H48zM55.2,43.2H57.6V45.6H55.2zM60,43.2H62.4V45.6H60zM64.8,43.2H67.2V45.6H64.8zM67.2,43.2H69.6V45.6H67.2zM69.6,43.2H72V45.6H69.6zM81.6,43.2H84V45.6H81.6zM84,43.2H86.4V45.6H84zM12,45.6H14.4V48H12zM14.4,45.6H16.8V48H14.4zM16.8,45.6H19.2V48H16.8zM19.2,45.6H21.6V48H19.2zM21.6,45.6H24V48H21.6zM24,45.6H26.4V48H24zM28.8,45.6H31.2V48H28.8zM36,45.6H38.4V48H36zM38.4,45.6H40.8V48H38.4zM43.2,45.6H45.6V48H43.2zM45.6,45.6H48V48H45.6zM52.8,45.6H55.2V48H52.8zM60,45.6H62.4V48H60zM62.4,45.6H64.8V48H62.4zM69.6,45.6H72V48H69.6zM72,45.6H74.4V48H72zM76.8,45.6H79.2V48H76.8zM79.2,45.6H81.6V48H79.2zM81.6,45.6H84V48H81.6zM12,48H14.4V50.4H12zM14.4,48H16.8V50.4H14.4zM19.2,48H21.6V50.4H19.2zM24,48H26.4V50.4H24zM26.4,48H28.8V50.4H26.4zM28.8,48H31.2V50.4H28.8zM33.6,48H36V50.4H33.6zM40.8,48H43.2V50.4H40.8zM48,48H50.4V50.4H48zM55.2,48H57.6V50.4H55.2zM62.4,48H64.8V50.4H62.4zM69.6,48H72V50.4H69.6zM72,48H74.4V50.4H72zM79.2,48H81.6V50.4H79.2zM81.6,48H84V50.4H81.6zM84,48H86.4V50.4H84zM12,50.4H14.4V52.8H12zM16.8,50.4H19.2V52.8H16.8zM21.6,50.4H24V52.8H21.6zM24,50.4H26.4V52.8H24zM28.8,50.4H31.2V52.8H28.8zM31.2,50.4H33.6V52.8H31.2zM43.2,50.4H45.6V52.8H43.2zM50.4,50.4H52.8V52.8H50.4zM57.6,50.4H60V52.8H57.6zM62.4,50.4H64.8V52.8H62.4zM72,50.4H74.4V52.8H72zM76.8,50.4H79.2V52.8H76.8zM79.2,50.4H81.6V52.8H79.2zM84,50.4H86.4V52.8H84zM7.2,52.8H9.6V55.2H7.2zM12,52.8H14.4V55.2H12zM14.4,52.8H16.8V55.2H14.4zM16.8,52.8H19.2V55.2H16.8zM19.2,52.8H21.6V55.2H19.2zM24,52.8H26.4V55.2H24zM28.8,52.8H31.2V55.2H28.8zM38.4,52.8H40.8V55.2H38.4zM45.6,52.8H48V55.2H45.6zM50.4,52.8H52.8V55.2H50.4zM62.4,52.8H64.8V55.2H62.4zM69.6,52.8H72V55.2H69.6zM76.8,52.8H79.2V55.2H76.8zM7.2,55.2H9.6V57.6H7.2zM14.4,55.2H16.8V57.6H14.4zM16.8,55.2H19.2V57.6H16.8zM21.6,55.2H24V57.6H21.6zM24,55.2H26.4V57.6H24zM26.4,55.2H28.8V57.6H26.4zM28.8,55.2H31.2V57.6H28.8zM33.6,55.2H36V57.6H33.6zM43.2,55.2H45.6V57.6H43.2zM45.6,55.2H48V57.6H45.6zM48,55.2H50.4V57.6H48zM60,55.2H62.4V57.6H60zM62.4,55.2H64.8V57.6H62.4zM72,55.2H74.4V57.6H72zM81.6,55.2H84V57.6H81.6zM84,55.2H86.4V57.6H84zM9.6,57.6H12V60H9.6zM12,57.6H14.4V60H12zM16.8,57.6H19.2V60H16.8zM28.8,57.6H31.2V60H28.8zM31.2,57.6H33.6V60H31.2zM33.6,57.6H36V60H33.6zM36,57.6H38.4V60H36zM40.8,57.6H43.2V60H40.8zM50.4,57.6H52.8V60H50.4zM55.2,57.6H57.6V60H55.2zM81.6,57.6H84V60H81.6zM84,57.6H86.4V60H84zM7.2,60H9.6V62.4H7.2zM9.6,60H12V62.4H9.6zM12,60H14.4V62.4H12zM16.8,60H19.2V62.4H16.8zM19.2,60H21.6V62.4H19.2zM21.6,60H24V62.4H21.6zM38.4,60H40.8V62.4H38.4zM40.8,60H43.2V62.4H40.8zM45.6,60H48V62.4H45.6zM48,60H50.4V62.4H48zM57.6,60H60V62.4H57.6zM60,60H62.4V62.4H60zM62.4,60H64.8V62.4H62.4zM67.2,60H69.6V62.4H67.2zM69.6,60H72V62.4H69.6zM84,60H86.4V62.4H84zM14.4,62.4H16.8V64.8H14.4zM19.2,62.4H21.6V64.8H19.2zM24,62.4H26.4V64.8H24zM26.4,62.4H28.8V64.8H26.4zM36,62.4H38.4V64.8H36zM38.4,62.4H40.8V64.8H38.4zM40.8,62.4H43.2V64.8H40.8zM43.2,62.4H45.6V64.8H43.2zM45.6,62.4H48V64.8H45.6zM48,62.4H50.4V64.8H48zM60,62.4H62.4V64.8H60zM76.8,62.4H79.2V64.8H76.8zM84,62.4H86.4V64.8H84zM7.2,64.8H9.6V67.2H7.2zM9.6,64.8H12V67.2H9.6zM12,64.8H14.4V67.2H12zM19.2,64.8H21.6V67.2H19.2zM21.6,64.8H24V67.2H21.6zM26.4,64.8H28.8V67.2H26.4zM28.8,64.8H31.2V67.2H28.8zM33.6,64.8H36V67.2H33.6zM38.4,64.8H40.8V67.2H38.4zM43.2,64.8H45.6V67.2H43.2zM45.6,64.8H48V67.2H45.6zM48,64.8H50.4V67.2H48zM52.8,64.8H55.2V67.2H52.8zM62.4,64.8H64.8V67.2H62.4zM64.8,64.8H67.2V67.2H64.8zM67.2,64.8H69.6V67.2H67.2zM69.6,64.8H72V67.2H69.6zM72,64.8H74.4V67.2H72zM74.4,64.8H76.8V67.2H74.4zM26.4,67.2H28.8V69.6H26.4zM28.8,67.2H31.2V69.6H28.8zM31.2,67.2H33.6V69.6H31.2zM33.6,67.2H36V69.6H33.6zM36,67.2H38.4V69.6H36zM38.4,67.2H40.8V69.6H38.4zM40.8,67.2H43.2V69.6H40.8zM43.2,67.2H45.6V69.6H43.2zM45.6,67.2H48V69.6H45.6zM50.4,67.2H52.8V69.6H50.4zM52.8,67.2H55.2V69.6H52.8zM57.6,67.2H60V69.6H57.6zM60,67.2H62.4V69.6H60zM64.8,67.2H67.2V69.6H64.8zM74.4,67.2H76.8V69.6H74.4zM76.8,67.2H79.2V69.6H76.8zM84,67.2H86.4V69.6H84zM7.2,69.6H9.6V72H7.2zM9.6,69.6H12V72H9.6zM12,69.6H14.4V72H12zM14.4,69.6H16.8V72H14.4zM16.8,69.6H19.2V72H16.8zM19.2,69.6H21.6V72H19.2zM21.6,69.6H24V72H21.6zM26.4,69.6H28.8V72H26.4zM31.2,69.6H33.6V72H31.2zM43.2,69.6H45.6V72H43.2zM50.4,69.6H52.8V72H50.4zM52.8,69.6H55.2V72H52.8zM55.2,69.6H57.6V72H55.2zM64.8,69.6H67.2V72H64.8zM69.6,69.6H72V72H69.6zM74.4,69.6H76.8V72H74.4zM79.2,69.6H81.6V72H79.2zM84,69.6H86.4V72H84zM7.2,72H9.6V74.4H7.2zM21.6,72H24V74.4H21.6zM26.4,72H28.8V74.4H26.4zM28.8,72H31.2V74.4H28.8zM31.2,72H33.6V74.4H31.2zM33.6,72H36V74.4H33.6zM36,72H38.4V74.4H36zM40.8,72H43.2V74.4H40.8zM43.2,72H45.6V74.4H43.2zM45.6,72H48V74.4H45.6zM57.6,72H60V74.4H57.6zM62.4,72H64.8V74.4H62.4zM64.8,72H67.2V74.4H64.8zM74.4,72H76.8V74.4H74.4zM76.8,72H79.2V74.4H76.8zM81.6,72H84V74.4H81.6zM84,72H86.4V74.4H84zM7.2,74.4H9.6V76.8H7.2zM12,74.4H14.4V76.8H12zM14.4,74.4H16.8V76.8H14.4zM16.8,74.4H19.2V76.8H16.8zM21.6,74.4H24V76.8H21.6zM36,74.4H38.4V76.8H36zM40.8,74.4H43.2V76.8H40.8zM43.2,74.4H45.6V76.8H43.2zM50.4,74.4H52.8V76.8H50.4zM57.6,74.4H60V76.8H57.6zM62.4,74.4H64.8V76.8H62.4zM64.8,74.4H67.2V76.8H64.8zM67.2,74.4H69.6V76.8H67.2zM69.6,74.4H72V76.8H69.6zM72,74.4H74.4V76.8H72zM74.4,74.4H76.8V76.8H74.4zM7.2,76.8H9.6V79.2H7.2zM12,76.8H14.4V79.2H12zM14.4,76.8H16.8V79.2H14.4zM16.8,76.8H19.2V79.2H16.8zM21.6,76.8H24V79.2H21.6zM28.8,76.8H31.2V79.2H28.8zM33.6,76.8H36V79.2H33.6zM40.8,76.8H43.2V79.2H40.8zM45.6,76.8H48V79.2H45.6zM50.4,76.8H52.8V79.2H50.4zM52.8,76.8H55.2V79.2H52.8zM55.2,76.8H57.6V79.2H55.2zM57.6,76.8H60V79.2H57.6zM62.4,76.8H64.8V79.2H62.4zM67.2,76.8H69.6V79.2H67.2zM72,76.8H74.4V79.2H72zM74.4,76.8H76.8V79.2H74.4zM76.8,76.8H79.2V79.2H76.8zM79.2,76.8H81.6V79.2H79.2zM81.6,76.8H84V79.2H81.6zM7.2,79.2H9.6V81.6H7.2zM12,79.2H14.4V81.6H12zM14.4,79.2H16.8V81.6H14.4zM16.8,79.2H19.2V81.6H16.8zM21.6,79.2H24V81.6H21.6zM26.4,79.2H28.8V81.6H26.4zM31.2,79.2H33.6V81.6H31.2zM33.6,79.2H36V81.6H33.6zM36,79.2H38.4V81.6H36zM40.8,79.2H43.2V81.6H40.8zM45.6,79.2H48V81.6H45.6zM48,79.2H50.4V81.6H48zM64.8,79.2H67.2V81.6H64.8zM74.4,79.2H76.8V81.6H74.4zM76.8,79.2H79.2V81.6H76.8zM81.6,79.2H84V81.6H81.6zM84,79.2H86.4V81.6H84zM7.2,81.6H9.6V84H7.2zM21.6,81.6H24V84H21.6zM28.8,81.6H31.2V84H28.8zM36,81.6H38.4V84H36zM43.2,81.6H45.6V84H43.2zM48,81.6H50.4V84H48zM55.2,81.6H57.6V84H55.2zM60,81.6H62.4V84H60zM64.8,81.6H67.2V84H64.8zM67.2,81.6H69.6V84H67.2zM76.8,81.6H79.2V84H76.8zM79.2,81.6H81.6V84H79.2zM7.2,84H9.6V86.4H7.2zM9.6,84H12V86.4H9.6zM12,84H14.4V86.4H12zM14.4,84H16.8V86.4H14.4zM16.8,84H19.2V86.4H16.8zM19.2,84H21.6V86.4H19.2zM21.6,84H24V86.4H21.6zM28.8,84H31.2V86.4H28.8zM31.2,84H33.6V86.4H31.2zM36,84H38.4V86.4H36zM38.4,84H40.8V86.4H38.4zM43.2,84H45.6V86.4H43.2zM48,84H50.4V86.4H48zM64.8,84H67.2V86.4H64.8zM74.4,84H76.8V86.4H74.4zM76.8,84H79.2V86.4H76.8zM79.2,84H81.6V86.4H79.2zM84,84H86.4V86.4H84z" id="qr-path" fill="#000000" fill-opacity="1" fill-rule="nonzero" stroke="none"/></svg>